# xmcd
#
# Track frame offsets: 
#        150
#        19160
#        35750
#        57845
#        74775
#        93450
#        108995
#        126542
#        143306
#        160110
#        177781
#        195483
#
# Disc length: 2772 seconds
#
# Revision: 2
# Processed by: cddbd v1.4PL0 Copyright (c) Steve Scherf et al.
# Submitted via: ExactAudioCopy v0.90b4
#
DISCID=a60ad20c
DTITLE=Farmer's Daughter - This Is The Life
DYEAR=1998
DGENRE=Country
TTITLE0=Freeway
TTITLE1=Blue Horizon
TTITLE2=This Is The Life (The Lois and Eddy Song)
TTITLE3=It's Easy To Tell
TTITLE4=Ballad Of Me And You
TTITLE5=No Understanding Your Love
TTITLE6=Let It Ride
TTITLE7=Prairie Sky
TTITLE8=Overwhelming Sense Of Goodbye
TTITLE9=Wait For Me
TTITLE10=Little Church In Memphis
TTITLE11=Willie
EXTD=YEAR: 1998 ID3G:   2
EXTT0=
EXTT1=
EXTT2=
EXTT3=
EXTT4=
EXTT5=
EXTT6=
EXTT7=
EXTT8=
EXTT9=
EXTT10=
EXTT11=
PLAYORDER=
